# xmcd CD database file
#
# Track frame offsets:
#	150
#	12630
#	23677
#	35236
#	47666
#	61859
#	76157
#	90432
#	110192
#	127906
#	150503
#	172130
#	184840
#	198745
#	211850
#	225466
#	240791
#	255679
#	267343
#	279803
#	291432
#	304771
#
# Disc length: 4265 seconds
#
# Revision: 0
# Processed by: cddbd v1.5.2PL0 Copyright (c) Steve Scherf et al.
# Submitted via: CDex 1.70beta2
#
DISCID=2c10a716
DTITLE=Various Artist - Jazz Roads CD373 - Bebop - Woody's Boys Vol.1 (1944-45)
DYEAR=1900
DGENRE=Jazz
TTITLE0=Chubby Jackson Sextet - I Gotcha Covered
TTITLE1=Chubby Jackson Sextet - Popsie
TTITLE2=Chubby Jackson Sextet - Bass Face
TTITLE3=Chubby Jackson Sextet - Don't Get Too Wild, Child
TTITLE4=Flip Phillips Fliptet - Skyscraper
TTITLE5=Flip Phillips Fliptet - Papilloma
TTITLE6=Flip Phillips Fliptet - A Melody From The Sky
TTITLE7=Flip Phillips Fliptet - 1-2-3-4 Jump
TTITLE8=Flip Phillips Fliptet - Bob's Belief
TTITLE9=Flip Phillips Fliptet - Sweet And Lovely
TTITLE10=Flip Phillips Fliptet - Lover Come Back To Me
TTITLE11=Chubby Jackson And His Orchestra - Northwest Passage
TTITLE12=Chubby Jackson And His Orchestra - Cryin' Sands
TTITLE13=Bill Harris And His Septet - Cross Country
TTITLE14=Bill Harris And His Septet - Characteristically, B.H.
TTITLE15=Bill Harris And His Septet - Mean To Me
TTITLE16=Bill Harris And His Septet - She's Funny That Way
TTITLE17=Flip Phillips Fliptet - Stompin' At The Savoy
TTITLE18=Flip Phillips Fliptet - Why Shouldn't I
TTITLE19=Flip Phillips Fliptet - Swingin' For Popsie
TTITLE20=Flip Phillips Fliptet - Without Woody
TTITLE21=Flip Phillips Fliptet - More Than You Know
EXTD=
EXTT0=
EXTT1=
EXTT2=
EXTT3=
EXTT4=
EXTT5=
EXTT6=
EXTT7=
EXTT8=
EXTT9=
EXTT10=
EXTT11=
EXTT12=
EXTT13=
EXTT14=
EXTT15=
EXTT16=
EXTT17=
EXTT18=
EXTT19=
EXTT20=
EXTT21=
PLAYORDER=
